<svg width="177" height="177" viewBox="0 0 177 177" fill="none" xmlns="http://www.w3.org/2000/svg">
<circle cx="88.5" cy="88.5" r="86" fill="#B5E0FF" stroke="black" stroke-width="5"/>
<path fill-rule="evenodd" clip-rule="evenodd" d="M65.1536 94.0097V48.3007L83.32 33.6503L101.486 19L137.819 48.3007V91.0107C137.175 91.5328 136.581 92.1433 136.054 92.8417L133.603 96.0921C132.449 97.6234 130.786 98.4981 129.054 98.6978H127.513C125.964 98.5189 124.462 97.7974 123.321 96.5203L122.365 95.4503C116.415 88.7918 105.916 89.0468 100.296 95.9863C99.0313 97.5483 97.2861 98.4565 95.4644 98.6978H93.4794C91.8145 98.4771 90.2072 97.6971 88.9642 96.3483L87.4741 94.7314C81.6777 88.4416 71.6491 88.7621 66.266 95.409L65.9611 95.7855C65.7112 96.0941 65.4407 96.3736 65.1536 96.624V94.0097ZM72.8389 98.6978H81.4854C78.9434 96.7051 75.3531 96.7277 72.8389 98.6978ZM107.671 98.6978H115.445C113.061 97.2485 110.042 97.2589 107.671 98.6978Z" fill="#007AD3"/>
<path fill-rule="evenodd" clip-rule="evenodd" d="M137.82 97.2148C137.175 97.7369 136.581 98.3474 136.054 99.0459L133.603 102.296C131.077 105.647 126.118 105.854 123.321 102.724L122.365 101.654C116.415 94.996 105.917 95.2509 100.296 102.19C97.4201 105.742 92.0616 105.913 88.9644 102.553L87.4742 100.936C81.6778 94.6458 71.6492 94.9662 66.2661 101.613L65.9612 101.99C63.2428 105.346 58.0944 105.257 55.4939 101.808L53.6359 99.3441C49.5324 93.9019 41.5242 93.4472 36.831 98.39C35.5 99.7918 35.5574 102.007 36.9592 103.338C38.361 104.669 40.5763 104.612 41.9073 103.21C43.6219 101.404 46.5476 101.57 48.0467 103.558L49.9047 106.023C55.2452 113.105 65.8183 113.289 71.401 106.395L71.706 106.019C74.4018 102.69 79.424 102.53 82.3267 105.679L83.8169 107.296C89.8077 113.797 100.173 113.466 105.736 106.596C108.642 103.008 114.069 102.876 117.145 106.319L118.102 107.389C123.367 113.28 132.369 113.408 137.82 108.074V97.2148Z" fill="#007AD3"/>
<path fill-rule="evenodd" clip-rule="evenodd" d="M137.82 129.204C137.175 129.726 136.581 130.336 136.054 131.035L133.603 134.285C131.077 137.636 126.118 137.843 123.321 134.713L122.365 133.643C116.415 126.985 105.917 127.24 100.296 134.179C97.4201 137.731 92.0616 137.902 88.9644 134.541L87.4742 132.924C81.6778 126.635 71.6492 126.955 66.2661 133.602L65.9612 133.978C63.2428 137.335 58.0944 137.246 55.4939 133.797L53.636 131.333C49.5324 125.891 41.5242 125.436 36.831 130.379C35.5 131.781 35.5574 133.996 36.9592 135.327C38.361 136.658 40.5763 136.6 41.9073 135.199C43.6219 133.393 46.5476 133.559 48.0467 135.547L49.9047 138.011C55.2452 145.094 65.8183 145.277 71.401 138.384L71.706 138.007C74.4018 134.679 79.424 134.518 82.3267 137.668L83.8169 139.285C89.8077 145.786 100.173 145.455 105.736 138.585C108.642 134.997 114.069 134.865 117.146 138.308L118.102 139.378C123.367 145.269 132.369 145.396 137.82 140.063V129.204Z" fill="#007AD3"/>
<path fill-rule="evenodd" clip-rule="evenodd" d="M137.82 112.795C137.175 113.317 136.581 113.928 136.054 114.626L133.603 117.877C131.077 121.228 126.118 121.434 123.321 118.305L122.365 117.235C116.415 110.576 105.917 110.831 100.296 117.771C97.4201 121.322 92.0616 121.494 88.9644 118.133L87.4742 116.516C81.6778 110.226 71.6492 110.547 66.2661 117.194L65.9612 117.57C63.2428 120.927 58.0944 120.838 55.4939 117.389L53.636 114.925C49.5324 109.482 41.5242 109.028 36.831 113.97C35.5 115.372 35.5574 117.588 36.9592 118.918C38.361 120.249 40.5763 120.192 41.9073 118.79C43.6219 116.985 46.5476 117.151 48.0467 119.139L49.9047 121.603C55.2452 128.686 65.8183 128.869 71.401 121.976L71.706 121.599C74.4018 118.27 79.424 118.11 82.3267 121.26L83.8169 122.877C89.8077 129.377 100.173 129.046 105.736 122.176C108.642 118.589 114.069 118.457 117.146 121.899L118.102 122.969C123.367 128.861 132.369 128.988 137.82 123.654V112.795Z" fill="#007AD3"/>
</svg>
