<svg width="177" height="177" viewBox="0 0 177 177" fill="none" xmlns="http://www.w3.org/2000/svg">
<circle cx="88.5" cy="88.5" r="86" fill="#CECECE" stroke="black" stroke-width="5"/>
<path d="M57.0505 57.6937L47.6618 44.5551C46.8214 43.3791 47.4677 41.7274 48.8829 41.4339L77.5 35.5L102.5 38.5L120 39L140.248 39.9642C140.623 39.9821 140.875 40.356 140.75 40.7099L136.044 54.0971C131.117 68.1115 120.777 79.565 107.337 85.8937L87.044 95.4497C82.6109 97.5373 78.7745 100.707 75.8883 104.667C71.0153 111.352 73.2152 120.805 80.539 124.652L91.2185 130.262C99.8529 134.798 103.461 145.273 99.4517 154.164C99.3235 154.448 98.9103 154.417 98.8257 154.117L96.5717 146.122C94.995 140.529 90.3999 136.303 84.695 135.199C74.3929 133.205 64.7214 128.763 56.4968 122.246L54.3646 120.557C43.4666 111.923 41.1272 96.3186 49.014 84.8679L57.183 73.0075C60.3674 68.3841 60.3144 62.2613 57.0505 57.6937Z" fill="#E7E7E7" stroke="black" stroke-width="5"/>
<path d="M141.5 39.5C141.5 40.6512 140.778 42.1737 138.473 43.9368C136.205 45.6716 132.766 47.3413 128.293 48.7887C119.374 51.6743 106.895 53.5 93 53.5C79.1045 53.5 66.6263 51.6743 57.7071 48.7887C53.2336 47.3413 49.7946 45.6716 47.5267 43.9368C45.2217 42.1737 44.5 40.6512 44.5 39.5C44.5 38.3488 45.2217 36.8263 47.5267 35.0632C49.7946 33.3284 53.2336 31.6587 57.7071 30.2113C66.6263 27.3257 79.1045 25.5 93 25.5C106.895 25.5 119.374 27.3257 128.293 30.2113C132.766 31.6587 136.205 33.3284 138.473 35.0632C140.778 36.8263 141.5 38.3488 141.5 39.5Z" fill="#E7E7E7" stroke="black" stroke-width="5"/>
</svg>
